<svg width="16" height="16" viewBox="0 0 16 16" fill="none" xmlns="http://www.w3.org/2000/svg">
<g clip-path="url(#clip0_7951_3177)">
<path d="M8 0.00012207C3.58156 0.00012207 0 3.58169 0 8.00012C0 12.4186 3.58156 16.0001 8 16.0001C12.4184 16.0001 16 12.4186 16 8.00012C16 3.58169 12.4184 0.00012207 8 0.00012207ZM8 3.13056C8.57635 3.13056 9.04348 3.59769 9.04348 4.17404C9.04348 4.75038 8.57635 5.21751 8 5.21751C7.42365 5.21751 6.95652 4.75038 6.95652 4.17404C6.95652 3.59769 7.42365 3.13056 8 3.13056ZM9.3913 12.5219H8.69565H7.30435H6.6087V11.8262H7.30435V7.30447H6.6087V6.60882H7.30435H8.69565V7.30447V11.8262H9.3913V12.5219Z" fill="#00822F"/>
</g>
<defs>
<clipPath id="clip0_7951_3177">
<rect width="16" height="16" fill="white"/>
</clipPath>
</defs>
</svg>
