<svg width="22" height="20" viewBox="0 0 22 20" fill="none" xmlns="http://www.w3.org/2000/svg">
<path fill-rule="evenodd" clip-rule="evenodd" d="M19.4083 3.50395C20.3407 2.91114 21.0561 1.97116 21.3918 0.851415C20.5189 1.40168 19.5543 1.79963 18.5251 2.01507C17.7038 1.08195 16.53 0.500122 15.231 0.500122C12.7387 0.500122 10.7191 2.64767 10.7191 5.29609C10.7191 5.67209 10.7566 6.03847 10.8341 6.38839C7.08411 6.18805 3.759 4.28064 1.53149 1.37698C1.14281 2.0878 0.920702 2.91114 0.920702 3.78938C0.920702 5.45253 1.71744 6.92082 2.92868 7.78259C2.18877 7.75789 1.49275 7.5397 0.883254 7.18292V7.24193C0.883254 9.5665 2.43799 11.5055 4.50537 11.9446C4.12573 12.0571 3.728 12.1134 3.31479 12.1134C3.02424 12.1134 2.74015 12.0846 2.4664 12.0283C3.03974 13.933 4.70681 15.3217 6.68251 15.3587C5.13682 16.6459 3.19082 17.4116 1.07695 17.4116C0.712802 17.4116 0.352527 17.391 0 17.3457C1.99765 18.7056 4.36978 19.5001 6.91882 19.5001C15.2219 19.5001 19.7596 12.1916 19.7596 5.85322C19.7596 5.64464 19.757 5.43743 19.748 5.23297C20.6299 4.55646 21.397 3.71116 22 2.74922C21.1904 3.1307 20.32 3.38868 19.4083 3.50395Z" fill="#00A655"/>
</svg>
