<svg width="140" height="140" viewBox="0 0 140 140" fill="none" xmlns="http://www.w3.org/2000/svg">
<g clip-path="url(#clip0_494_3266)">
<path d="M69.7185 29.3272C70.0584 29.3258 70.2965 29.3446 70.567 29.5629C70.7627 29.8085 70.9186 30.064 71.0787 30.3346C71.1635 30.4741 71.2485 30.6136 71.3334 30.7531C72.9346 33.4126 74.3791 36.1723 75.807 38.9273C76.1184 39.5263 76.4362 40.1209 76.7631 40.7116C78.5074 43.8655 80.1024 47.1022 81.6711 50.3462C81.8003 50.6129 81.9301 50.8793 82.06 51.1456C82.2493 51.5337 82.4352 51.9233 82.6201 52.3135C82.7191 52.5188 82.8181 52.7241 82.9172 52.9293C82.9616 53.0245 83.006 53.1197 83.0517 53.2178C83.371 53.8727 83.7024 54.3122 84.3706 54.6463C85.3002 54.7698 86.0242 54.3599 86.8486 53.9717C86.9893 53.9068 87.13 53.8421 87.2708 53.7776C87.5279 53.6596 87.7847 53.5408 88.0409 53.421C88.563 53.1854 89.0263 53.0926 89.5964 53.1694C90.5916 53.667 90.9268 54.6863 91.3644 55.6474C91.4278 55.7855 91.4913 55.9236 91.5548 56.0617C91.6585 56.2872 91.7622 56.5128 91.8656 56.7384C92.1531 57.3653 92.4433 57.991 92.7343 58.6163C93.7186 60.7318 94.6966 62.8495 95.6423 64.9826C95.788 65.3112 95.9341 65.6395 96.0805 65.9678C98.9178 72.3342 101.597 78.7684 104.232 85.221C104.379 85.5814 104.526 85.9417 104.674 86.3021C104.953 86.9863 105.233 87.6706 105.512 88.355C105.621 88.6232 105.731 88.8913 105.84 89.1594C106.139 89.8905 106.436 90.6221 106.732 91.3544C106.858 91.6657 106.986 91.9761 107.115 92.2864C107.189 92.4675 107.263 92.6487 107.336 92.8298C107.37 92.9086 107.403 92.9873 107.437 93.0684C107.66 93.6233 107.709 94.048 107.66 94.6356C107.425 94.9764 107.425 94.9764 107.092 95.2036C106.649 95.2747 106.41 95.2733 106.025 95.0367C105.622 94.6465 105.391 94.2099 105.125 93.7196C105.005 93.5038 104.884 93.2881 104.764 93.0726C104.7 92.9577 104.635 92.8429 104.569 92.7246C104.21 92.0897 103.837 91.4636 103.463 90.8369C103.385 90.7047 103.306 90.5726 103.228 90.4404C103.073 90.1806 102.919 89.9208 102.764 89.6611C102.452 89.1353 102.141 88.6086 101.83 88.0819C101.248 87.0955 100.664 86.1098 100.08 85.1245C99.9841 84.9632 99.8885 84.8019 99.7929 84.6405C99.5746 84.272 99.3559 83.9038 99.136 83.5364C99.0013 83.3108 98.8678 83.0846 98.7364 82.8571C98.4521 82.3583 98.4521 82.3583 97.9394 82.1176C97.5011 82.1415 97.3939 82.1696 97.0944 82.4797C97.0057 82.774 96.9449 83.0389 96.8961 83.3398C96.8804 83.4255 96.8647 83.5112 96.8486 83.5995C96.7986 83.8745 96.7511 84.1498 96.7039 84.4252C96.5155 85.5061 96.3183 86.5773 96.0183 87.6337C95.9966 87.7128 95.9749 87.7918 95.9525 87.8733C95.8083 88.3579 95.6249 88.702 95.2767 89.0689C95.0211 89.1896 95.0211 89.1896 94.7087 89.1825C93.8763 88.8721 93.2912 88.3224 92.6638 87.7056C92.6005 87.6438 92.5373 87.582 92.4721 87.5183C91.3224 86.2874 90.8834 84.8015 90.4668 83.2159C90.1949 82.1967 89.8504 81.2215 89.3763 80.2786C89.3409 80.2048 89.3055 80.131 89.269 80.055C89.0746 79.6886 88.9649 79.5429 88.5664 79.4079C88.2111 79.3825 88.2111 79.3825 87.8923 79.6396C87.7758 79.854 87.7758 79.854 87.6882 80.106C87.6519 80.199 87.6156 80.2921 87.5781 80.388C87.5046 80.5824 87.4317 80.777 87.3598 80.972C87.0492 81.7615 86.6402 82.33 85.898 82.7624C85.811 82.7933 85.724 82.8242 85.6344 82.856C85.5385 82.8909 85.4426 82.9258 85.3437 82.9617C84.982 83.0685 84.6207 83.1376 84.2467 83.1858C83.9232 83.3188 83.8524 83.5394 83.6889 83.843C83.611 84.0432 83.5391 84.2458 83.4728 84.4501C83.4349 84.5636 83.3971 84.6771 83.3581 84.794C83.2805 85.0308 83.2033 85.2678 83.1264 85.5049C82.7565 86.6097 82.7565 86.6097 82.3256 87.024C82.0061 87.1447 82.0061 87.1447 81.644 87.1376C80.9355 86.8021 80.43 86.3218 79.8831 85.7672C79.7977 85.6808 79.7123 85.5945 79.6243 85.5055C78.2612 84.1006 77.7288 82.6552 77.3329 80.7508C76.9327 78.8328 76.9327 78.8328 76.1909 77.0266C76.1293 76.9082 76.0676 76.7897 76.004 76.6677C75.7838 76.248 75.5586 75.8311 75.3318 75.4149C75.2946 75.3461 75.2574 75.2774 75.2191 75.2066C75.1112 75.0085 75.0012 74.8116 74.8911 74.6147C74.827 74.4994 74.763 74.3842 74.6969 74.2654C74.4691 73.9334 74.2554 73.7248 73.9188 73.5049C73.5504 73.5203 73.5504 73.5203 73.2372 73.6185C73.0764 74.0719 72.9617 74.5082 72.8835 74.9826C72.8615 75.1124 72.8395 75.2422 72.8169 75.3759C72.7939 75.5129 72.7709 75.65 72.7472 75.7912C72.5742 76.7871 72.3922 77.7773 72.1508 78.7591C72.1298 78.8475 72.1087 78.9358 72.087 79.0268C71.9378 79.6115 71.7442 80.3373 71.3059 80.7756C70.8547 80.8277 70.6049 80.8457 70.2337 80.5697C69.8675 80.1486 69.5542 79.6793 69.2348 79.2224C69.0577 78.949 69.0577 78.949 68.8065 78.8443C68.3309 78.7905 68.0956 78.7849 67.6989 79.0644C67.1838 79.7655 67.0442 80.6477 66.8474 81.483C66.5463 82.7575 66.2052 84.0127 65.7986 85.2575C65.7499 85.4068 65.7017 85.5563 65.6542 85.706C65.587 85.9162 65.5171 86.1255 65.4472 86.3348C65.4076 86.4543 65.3681 86.5739 65.3273 86.6971C65.1417 87.0856 64.934 87.318 64.6031 87.592C64.1984 87.6062 64.1984 87.6062 63.8079 87.4784C63.4592 87.0981 63.2243 86.695 62.9931 86.2358C62.9274 86.1067 62.8618 85.9775 62.7941 85.8444C62.7602 85.7772 62.7263 85.7099 62.6914 85.6406C61.8029 83.478 61.8029 83.478 60.2177 81.9738C59.7296 81.8625 59.232 81.8152 58.7355 81.7546C57.9258 81.6055 57.4732 81.1934 56.9915 80.5484C56.8833 80.3359 56.7829 80.1192 56.6897 79.8996C56.6104 79.7155 56.6104 79.7155 56.5295 79.5277C56.4489 79.3371 56.4489 79.3371 56.3667 79.1425C56.1623 78.6626 55.9545 78.1846 55.7418 77.7083C55.7083 77.6273 55.6747 77.5463 55.6401 77.4629C55.3356 76.8177 54.8035 76.6009 54.194 76.3024C52.8545 75.6027 51.9484 74.7971 51.0558 73.5839C50.6967 73.0978 50.6967 73.0978 50.1752 72.8232C49.7339 72.7864 49.3969 72.7761 49.0391 73.0504C48.5704 73.7278 48.3881 74.4616 48.1784 75.2517C48.0705 75.6568 47.9585 76.0608 47.8467 76.4648C47.8121 76.5901 47.8121 76.5901 47.7768 76.7179C47.5468 77.5457 47.2999 78.3681 47.0447 79.1885C46.9978 79.3394 46.9511 79.4905 46.9047 79.6416C45.9538 82.7368 45.9538 82.7368 45.4037 83.1614C45.0984 83.2892 45.0984 83.2892 44.7221 83.275C43.912 82.8628 43.4601 81.9772 43.0117 81.225C42.7293 80.7605 42.5166 80.4251 41.9955 80.2076C41.5909 80.1612 41.5909 80.1612 41.2003 80.3212C40.6944 80.9268 40.375 81.7199 40.0323 82.4247C39.9765 82.5384 39.9208 82.6521 39.8634 82.7692C39.6836 83.1363 39.5047 83.5038 39.3258 83.8714C39.2017 84.1255 39.0776 84.3796 38.9535 84.6337C38.2642 86.0473 37.5848 87.4645 36.9289 88.894C36.4935 89.8427 36.0452 90.7846 35.591 91.7244C35.5274 91.8561 35.4638 91.9878 35.3983 92.1235C35.2752 92.3776 35.1515 92.6313 35.0271 92.8848C34.8935 93.159 34.7629 93.4337 34.6345 93.7104C34.5661 93.8546 34.4977 93.9988 34.4292 94.143C34.3688 94.2727 34.3083 94.4024 34.2461 94.536C34.0223 94.8963 33.8605 95.0341 33.4751 95.2036C33.0047 95.2036 32.7685 95.1628 32.4029 94.8628C31.8925 93.8827 32.4108 92.7322 32.7082 91.7475C32.7594 91.5744 32.8104 91.4014 32.8614 91.2283C32.9981 90.765 33.1365 90.3023 33.2753 89.8396C33.4201 89.3559 33.5634 88.8718 33.707 88.3877C33.9653 87.5175 34.2251 86.6478 34.4856 85.7782C34.6963 85.0747 34.9056 84.3709 35.1144 83.6668C36.6709 78.4232 38.3559 73.2381 40.2928 68.1218C40.3677 67.9233 40.4423 67.7247 40.5165 67.5259C40.6217 67.2442 40.728 66.963 40.8346 66.6818C40.8651 66.5995 40.8956 66.5172 40.927 66.4323C41.4373 65.1007 42.3519 64.5031 43.6011 63.938C44.8216 63.3786 45.465 62.7429 45.9793 61.4835C46.0197 61.3878 46.0602 61.2922 46.1019 61.1937C46.2326 60.8839 46.3613 60.5733 46.4901 60.2627C46.5803 60.048 46.6707 59.8335 46.7613 59.619C46.9429 59.1884 47.124 58.7576 47.3046 58.3265C47.6332 57.5431 47.9687 56.7627 48.3068 55.9833C48.3975 55.774 48.4877 55.5646 48.5778 55.3552C48.7296 55.0043 48.8837 54.6547 49.0391 54.3054C49.0775 54.2157 49.1159 54.126 49.1555 54.0335C49.4008 53.4927 49.6673 53.1635 50.1752 52.8286C50.4769 52.7269 50.7472 52.6501 51.0556 52.5872C51.2169 52.5502 51.3781 52.513 51.5393 52.4758C51.617 52.4584 51.6946 52.4411 51.7746 52.4232C52.0622 52.3585 52.3474 52.2882 52.6319 52.2108C52.713 52.1899 52.7941 52.1689 52.8777 52.1474C53.7517 51.7506 54.0794 51.0492 54.4993 50.2298C54.6298 49.9818 54.7606 49.7339 54.8916 49.4861C54.9576 49.3606 55.0235 49.2352 55.0915 49.106C55.3849 48.556 55.6945 48.0156 56.0046 47.4749C56.621 46.3944 57.2081 45.3 57.7902 44.2007C58.3423 43.1586 58.9089 42.1268 59.4969 41.1043C59.854 40.4795 60.1954 39.8484 60.5266 39.2096C60.6077 39.054 60.6889 38.8984 60.77 38.7428C60.9271 38.4412 61.0819 38.1386 61.2355 37.8352C61.7273 36.8802 62.1904 36.1169 63.254 35.7735C63.3602 35.7379 63.4664 35.7023 63.5758 35.6656C63.8185 35.5918 64.0621 35.5207 64.3062 35.4517C64.4989 35.3966 64.4989 35.3966 64.6954 35.3403C64.8133 35.3089 64.9312 35.2774 65.0527 35.2449C65.8034 34.9433 66.1872 34.4375 66.5841 33.757C66.6812 33.5964 66.7785 33.4361 66.8761 33.2759C66.9559 33.1444 66.9559 33.1444 67.0373 33.0103C67.3835 32.4486 67.7438 31.896 68.1036 31.3428C68.1756 31.2311 68.2477 31.1194 68.3219 31.0043C69.2952 29.5083 69.2952 29.5083 69.7185 29.3272Z" fill="#101010"></path>
<path d="M100.616 101.591C101.197 101.614 101.598 101.66 102.048 102.046C102.589 102.716 102.978 103.467 103.361 104.235C103.724 104.927 104.16 105.573 104.592 106.223C104.596 106.028 104.596 106.028 104.601 105.829C104.612 105.347 104.623 104.866 104.635 104.385C104.639 104.176 104.644 103.968 104.649 103.759C104.655 103.46 104.662 103.161 104.67 102.862C104.672 102.768 104.674 102.674 104.676 102.577C104.693 101.919 104.693 101.919 104.819 101.793C105.757 101.793 106.694 101.793 107.66 101.793C107.66 104.829 107.66 107.866 107.66 110.995C106.685 110.995 105.71 110.995 104.706 110.995C104.001 110.108 103.603 109.475 103.115 108.495C102.74 107.933 102.366 107.371 101.979 106.791C101.942 108.178 101.904 109.565 101.866 110.995C100.853 110.995 99.8412 110.995 98.7983 110.995C98.7958 109.812 98.7937 108.629 98.7924 107.446C98.7918 106.896 98.791 106.347 98.7897 105.798C98.7885 105.268 98.7878 104.739 98.7875 104.209C98.7873 104.006 98.7869 103.804 98.7863 103.601C98.7855 103.319 98.7854 103.036 98.7854 102.753C98.785 102.669 98.7846 102.584 98.7842 102.497C98.7863 101.441 99.7202 101.63 100.616 101.591Z" fill="#101010"></path>
<path d="M32.2256 101.793C33.0551 101.786 33.8845 101.779 34.7391 101.771C34.9975 101.768 35.2558 101.765 35.522 101.762C38.802 101.739 38.802 101.739 39.7236 102.588C40.2591 103.297 40.3847 103.874 40.2916 104.746C40.0943 105.366 39.7494 105.796 39.2692 106.223C39.3324 106.23 39.3957 106.237 39.4609 106.245C39.9745 106.425 40.2359 106.807 40.4975 107.267C40.7404 108.047 40.7285 108.792 40.4021 109.547C40.0158 110.24 39.3479 110.58 38.6487 110.893C38.0537 111.044 37.4744 111.022 36.863 111.017C36.7453 111.017 36.6277 111.016 36.5064 111.016C36.0688 111.015 35.6312 111.012 35.1935 111.009C34.2141 111.004 33.2347 110.999 32.2256 110.995C32.2256 107.958 32.2256 104.921 32.2256 101.793ZM35.1793 103.951C35.1793 104.438 35.1793 104.926 35.1793 105.428C35.473 105.443 35.7659 105.455 36.0598 105.463C36.1427 105.468 36.2256 105.473 36.311 105.478C36.7583 105.488 36.9506 105.472 37.2824 105.16C37.4745 104.874 37.4745 104.874 37.4586 104.562C37.2945 104.195 37.1315 104.122 36.7698 103.951C36.3629 103.91 36.3629 103.91 35.9391 103.93C35.7966 103.933 35.6541 103.936 35.5073 103.939C35.345 103.945 35.345 103.945 35.1793 103.951ZM35.1793 107.246C35.1793 107.771 35.1793 108.295 35.1793 108.836C35.4705 108.842 35.7615 108.847 36.0527 108.85C36.1346 108.852 36.2166 108.854 36.301 108.856C36.7725 108.86 37.1475 108.837 37.5651 108.609C37.7402 108.259 37.7125 107.972 37.6787 107.586C37.4747 107.344 37.3101 107.256 36.9952 107.219C36.7204 107.212 36.4481 107.216 36.1734 107.224C36.0302 107.227 36.0302 107.227 35.8841 107.229C35.6491 107.233 35.4142 107.239 35.1793 107.246Z" fill="#101010"></path>
<path d="M59.1504 101.792C60.4579 101.785 60.4579 101.785 61.7917 101.778C62.064 101.776 62.3363 101.774 62.6168 101.772C62.837 101.771 63.0573 101.771 63.2775 101.77C63.4436 101.768 63.4436 101.768 63.6131 101.767C64.776 101.766 65.9515 101.811 66.8756 102.588C67.5463 103.311 67.6275 103.923 67.6007 104.892C67.5238 105.639 67.2159 106.021 66.6697 106.507C66.5877 106.563 66.5057 106.619 66.4212 106.677C66.4841 106.72 66.5471 106.763 66.612 106.807C66.7354 106.894 66.7354 106.894 66.8614 106.983C66.9431 107.039 67.0248 107.096 67.109 107.154C67.5192 107.534 67.5855 107.999 67.6251 108.538C67.6341 108.652 67.6431 108.766 67.6524 108.884C67.6608 109.001 67.6693 109.119 67.6779 109.241C67.6955 109.475 67.7134 109.71 67.7316 109.944C67.7391 110.047 67.7466 110.151 67.7543 110.258C67.7816 110.513 67.8284 110.747 67.8981 110.994C67.3892 110.998 66.8803 111 66.3715 111.001C66.2261 111.002 66.0808 111.003 65.931 111.004C65.793 111.005 65.655 111.005 65.5128 111.005C65.3849 111.006 65.2569 111.007 65.1252 111.007C64.8307 110.994 64.8307 110.994 64.7171 110.881C64.6954 110.709 64.6804 110.536 64.6683 110.364C64.6599 110.259 64.6516 110.153 64.643 110.045C64.6262 109.823 64.6102 109.6 64.595 109.378C64.5864 109.272 64.5778 109.166 64.5689 109.057C64.5619 108.96 64.5548 108.864 64.5476 108.764C64.478 108.44 64.3817 108.276 64.1491 108.041C63.9216 107.959 63.9216 107.959 63.6684 107.947C63.5452 107.934 63.5452 107.934 63.4194 107.922C63.3158 107.914 63.2121 107.907 63.1053 107.899C62.7749 107.871 62.4445 107.842 62.1041 107.813C62.1041 108.863 62.1041 109.913 62.1041 110.994C61.1294 110.994 60.1547 110.994 59.1504 110.994C59.1504 107.958 59.1504 104.921 59.1504 101.792ZM62.1041 104.064C62.1041 104.627 62.1041 105.189 62.1041 105.769C62.4143 105.778 62.7241 105.784 63.0343 105.79C63.1216 105.793 63.209 105.796 63.299 105.798C63.8329 105.805 64.1645 105.766 64.6035 105.428C64.7525 105.303 64.7525 105.303 64.7455 104.995C64.714 104.593 64.6689 104.451 64.3763 104.178C63.8956 104.042 63.4158 104.051 62.9207 104.057C62.5165 104.061 62.5165 104.061 62.1041 104.064Z" fill="#101010"></path>
<path d="M92.6645 102.588C93.4889 103.328 94.0561 104.343 94.1667 105.456C94.2445 107.104 94.0955 108.544 93.0053 109.859C92.212 110.693 91.1534 111.209 89.9961 111.256C89.8134 111.259 89.6307 111.259 89.448 111.258C89.3523 111.257 89.2566 111.256 89.158 111.256C87.8874 111.231 86.7932 110.863 85.8432 109.985C84.6966 108.741 84.5319 107.413 84.5629 105.783C84.5924 105.105 84.726 104.549 85.0529 103.951C85.0984 103.863 85.1439 103.774 85.1909 103.682C85.7549 102.713 86.7053 102.027 87.783 101.731C87.8568 101.714 87.9306 101.697 88.0066 101.679C88.1648 101.641 88.1648 101.641 88.3261 101.601C89.9044 101.447 91.3418 101.664 92.6645 102.588ZM87.893 104.747C87.4709 105.592 87.4496 106.692 87.6964 107.594C87.8933 108.116 88.1905 108.574 88.6883 108.837C89.3725 108.994 89.7652 108.971 90.3923 108.609C91.1192 107.863 91.1769 106.998 91.1876 105.996C91.1146 105.215 90.8654 104.609 90.2645 104.079C89.2837 103.695 88.541 103.926 87.893 104.747Z" fill="#101010"></path>
<path d="M45.4036 101.793C46.4158 101.793 47.4281 101.793 48.471 101.793C48.4752 102.237 48.4795 102.682 48.4838 103.14C48.4891 103.57 48.4949 104.001 48.5008 104.431C48.5046 104.731 48.5077 105.03 48.5103 105.329C48.5141 105.759 48.5201 106.189 48.5264 106.619C48.5272 106.753 48.5279 106.886 48.5286 107.024C48.532 107.212 48.532 107.212 48.5355 107.403C48.5367 107.513 48.538 107.623 48.5393 107.736C48.5932 108.099 48.7087 108.314 48.9254 108.609C49.485 108.896 49.9203 108.857 50.5159 108.723C50.8488 108.467 50.9508 108.327 51.0839 107.928C51.0971 107.727 51.104 107.527 51.1072 107.326C51.1095 107.203 51.1118 107.08 51.1141 106.954C51.116 106.821 51.1179 106.689 51.1198 106.552C51.1222 106.417 51.1246 106.281 51.127 106.141C51.1344 105.707 51.1411 105.273 51.1478 104.839C51.1527 104.545 51.1577 104.251 51.1627 103.957C51.1749 103.236 51.1862 102.514 51.1975 101.793C52.2097 101.793 53.222 101.793 54.2649 101.793C54.2727 102.658 54.2795 103.523 54.2836 104.388C54.2853 104.681 54.2876 104.975 54.2906 105.269C54.2948 105.693 54.2967 106.117 54.2982 106.541C54.2999 106.671 54.3017 106.801 54.3035 106.934C54.3038 108.266 54.1303 109.34 53.1745 110.306C52.8061 110.623 52.4518 110.839 51.9928 110.995C51.8798 111.035 51.7669 111.075 51.6506 111.117C50.3089 111.489 48.3328 111.438 47.1077 110.768C46.2289 110.257 45.7528 109.604 45.455 108.634C45.3921 108.326 45.39 108.04 45.3907 107.726C45.3907 107.594 45.3907 107.462 45.3907 107.326C45.3913 107.184 45.3919 107.042 45.3925 106.896C45.3927 106.751 45.3928 106.605 45.393 106.455C45.3934 106.069 45.3945 105.683 45.3958 105.296C45.397 104.902 45.3975 104.507 45.3981 104.113C45.3992 103.34 45.4014 102.566 45.4036 101.793Z" fill="#101010"></path>
<path d="M71.9873 101.793C74.7616 101.793 77.5358 101.793 80.3941 101.793C80.3941 102.618 80.3941 103.443 80.3941 104.292C79.5319 104.292 78.6696 104.292 77.7812 104.292C77.7812 106.504 77.7812 108.716 77.7812 110.995C76.769 110.995 75.7568 110.995 74.7138 110.995C74.7138 108.783 74.7138 106.571 74.7138 104.292C73.8141 104.292 72.9143 104.292 71.9873 104.292C71.9873 103.468 71.9873 102.643 71.9873 101.793Z" fill="#101010"></path>
</g>
<defs>
<clipPath id="clip0_494_3266">
<rect width="75.548" height="81.7963" fill="white" transform="translate(32.2256 29.4258)"></rect>
</clipPath>
</defs>
</svg>