<svg width="140" height="140" viewBox="0 0 140 140" fill="none" xmlns="http://www.w3.org/2000/svg">
<path d="M33.3711 68.6019L31.4808 68.3452C31.0141 68.2985 30.6407 68.1351 30.3607 67.8784C30.0573 67.575 30.034 67.2483 30.034 67.1083C30.034 66.3615 30.6407 65.5914 31.9942 65.5914H32.1109C32.7877 65.5914 33.9312 65.5914 34.888 66.4316L34.958 66.5016L35.028 66.4316C35.098 66.3615 37.1516 64.3079 37.2216 64.2379L37.2916 64.1679L37.2216 64.0979C35.9614 62.8844 34.3746 62.3477 32.1109 62.3477C28.7271 62.3477 26.4401 64.3079 26.4401 67.225C26.4401 68.5552 26.7902 69.6053 27.4903 70.3288C28.167 71.0289 29.2172 71.4956 30.594 71.6823L32.4843 71.939C32.9744 72.009 33.3244 72.149 33.5578 72.359C33.7678 72.5924 33.8845 72.9191 33.8845 73.3392C33.8845 74.5527 32.6243 74.8094 31.5742 74.8094C30.8974 74.8094 29.1938 74.716 28.1437 73.7826L28.0737 73.7126L28.0037 73.7826C27.957 73.8292 25.8334 75.9529 25.7634 76.0229L25.6934 76.0929L25.7634 76.1629C27.1402 77.5398 28.8671 78.0998 31.5508 78.0998C34.5379 78.0998 37.5483 76.583 37.5483 73.2225C37.5483 71.6823 37.1749 70.5855 36.4048 69.8387C35.7748 69.2086 34.7479 68.7885 33.3711 68.6019Z" fill="black"></path>
<path d="M91.4325 62.3242C89.6356 62.3242 88.3054 62.861 87.0919 64.0745C85.5283 65.638 85.5283 67.7383 85.5283 69.9786V70.5153C85.5283 72.7323 85.5283 74.8326 87.0919 76.3962C88.3054 77.6097 89.6356 78.1464 91.4325 78.1464C93.2294 78.1464 94.5596 77.6097 95.7731 76.3962C97.3366 74.8326 97.3366 72.7323 97.3366 70.5153V69.9553C97.3366 67.7383 97.3366 65.638 95.7731 64.0745C94.5596 62.861 93.2294 62.3242 91.4325 62.3242ZM93.0194 74.0858C92.7627 74.4359 92.2026 74.8093 91.4325 74.8093C90.6857 74.8093 90.1256 74.4359 89.8456 74.0858C89.4722 73.6191 89.2622 73.1057 89.2622 70.212C89.2622 67.3182 89.4955 66.7815 89.8456 66.3148C90.1723 65.8714 90.7791 65.6147 91.4325 65.6147C92.0859 65.6147 92.6926 65.8714 93.0194 66.3148C93.3694 66.7815 93.6028 67.3182 93.6028 70.212C93.6028 73.1057 93.3927 73.6191 93.0194 74.0858Z" fill="black"></path>
<path d="M105.201 74.6695C104.548 74.6695 103.964 74.4128 103.614 73.9694C103.264 73.5027 103.031 72.9892 103.031 70.0955C103.031 70.0955 103.031 62.8612 103.031 62.5811V62.4878H99.2969V70.6323C99.2969 72.5458 99.2969 74.7162 100.86 76.2797C102.051 77.4932 103.404 78.0299 105.178 78.0299H109.588V74.6928H105.201V74.6695Z" fill="black"></path>
<path d="M8.84456 71.4956L8.89123 71.4723C9.47464 71.1689 11.4116 70.0021 11.4116 67.435C11.4116 64.9614 9.59133 62.4644 6.13752 62.4644H0V78.0065H3.73385V72.1957H4.27059C5.06403 72.1957 5.32074 72.5924 5.57744 73.1058C6.09084 74.1793 6.90762 75.9062 7.42103 76.9797C7.67773 77.5398 7.86442 77.9132 7.88776 77.9365L7.9111 78.0065H12.2284L12.1583 77.8665C12.0883 77.7731 9.24128 72.289 8.84456 71.4956ZM5.95082 69.0686H3.71052V65.7781H5.95082C7.07098 65.7781 7.67773 66.6183 7.67773 67.4117C7.67773 68.2285 7.07098 69.0686 5.95082 69.0686Z" fill="black"></path>
<path d="M18.9022 62.3242C17.1053 62.3242 15.7751 62.861 14.5616 64.0745C12.9981 65.638 12.9981 67.7383 12.9981 69.9786V70.492C12.9981 72.709 12.9747 74.8093 14.5616 76.3962C15.7751 77.6097 17.1053 78.1464 18.9022 78.1464C20.6991 78.1464 22.0293 77.6097 23.2428 76.3962C24.8064 74.8326 24.8064 72.7323 24.8064 70.492V69.9553C24.8064 67.7383 24.8064 65.638 23.2428 64.0745C22.0293 62.861 20.6991 62.3242 18.9022 62.3242ZM17.3153 66.3381C17.642 65.8947 18.2488 65.638 18.9022 65.638C19.5556 65.638 20.1624 65.8947 20.4891 66.3381C20.8392 66.8048 21.0725 67.3182 21.0725 70.2353C21.0725 73.129 20.8625 73.6191 20.4891 74.1092C20.2324 74.4592 19.6723 74.8326 18.9022 74.8326C18.1321 74.8326 17.572 74.4592 17.3153 74.1092C16.9419 73.6425 16.7319 73.129 16.7319 70.2353C16.7319 67.3182 16.9653 66.8048 17.3153 66.3381Z" fill="black"></path>
<path d="M63.7556 72.1957H66.0659V72.4757C66.0659 73.1758 65.8559 73.7826 65.4592 74.2026C65.0625 74.6227 64.479 74.8327 63.7089 74.8327C63.0555 74.8327 62.4721 74.576 62.1454 74.156C61.7953 73.6892 61.562 73.1758 61.562 70.2588C61.562 67.365 61.7953 66.8283 62.1454 66.3615C62.4954 65.9181 63.0789 65.6614 63.7089 65.6614C64.9691 65.6614 65.6225 66.1515 65.9726 67.3417L65.9959 67.4117H69.7531L69.7298 67.295C69.5197 66.1282 68.4929 62.3477 63.7089 62.3477C61.9354 62.3477 60.6052 62.8844 59.3917 64.0979C57.8281 65.6614 57.8281 67.7617 57.8281 70.002V70.5154C57.8281 72.7324 57.8281 74.8327 59.3917 76.4196C60.5585 77.5864 61.9587 78.1698 63.7089 78.1698C65.6925 78.1698 67.0227 77.6564 68.2129 76.4196C69.3564 75.2528 69.7764 73.8526 69.7764 71.2622V69.1386H63.7556V72.1957Z" fill="black"></path>
<path d="M45.9494 68.6019L44.0592 68.3452C43.5691 68.2985 43.1957 68.1351 42.939 67.8784C42.6356 67.575 42.6123 67.2483 42.6123 67.1083C42.6123 66.3615 43.219 65.5914 44.5726 65.5914H44.6892C45.366 65.5914 46.5095 65.5914 47.4663 66.4316L47.5363 66.5016L47.6063 66.4316C47.6763 66.3615 49.7533 64.2846 49.7999 64.2379L49.87 64.1679L49.7999 64.0979C48.5398 62.8844 46.9529 62.3477 44.6892 62.3477C41.3054 62.3477 39.0185 64.3079 39.0185 67.225C39.0185 68.5552 39.3685 69.6053 40.0919 70.3288C40.7687 71.0289 41.8188 71.4956 43.1957 71.6823L45.086 71.939C45.576 72.009 45.9261 72.149 46.1594 72.359C46.3695 72.5924 46.4862 72.9191 46.4862 73.3392C46.4862 74.5527 45.226 74.8094 44.1758 74.8094C43.4991 74.8094 41.7955 74.716 40.7687 73.7826L40.6987 73.7126L40.6287 73.7826C40.5587 73.8526 38.4584 75.9529 38.3884 76.0229L38.3184 76.0929L38.3884 76.1629C39.7652 77.5398 41.4921 78.0998 44.1758 78.0998C47.1629 78.0998 50.1733 76.583 50.1733 73.2225C50.1733 71.7056 49.7999 70.5855 49.0298 69.8387C48.3531 69.2086 47.3263 68.7885 45.9494 68.6019Z" fill="black"></path>
<path d="M77.6405 62.4644H71.7363V78.0065H75.4702V77.9132C75.4702 77.8665 75.4702 70.8655 75.4702 70.8655V65.8015H77.6405C78.2939 65.8015 78.9007 66.0582 79.2274 66.5016C79.5541 66.9216 79.7641 67.4117 79.8108 69.792V78.0065H83.5446V69.8387C83.5446 67.9251 83.5446 65.7548 81.9811 64.1913C80.7909 63.0011 79.4374 62.4644 77.6405 62.4644Z" fill="black"></path>
<path d="M55.8676 62.4644H52.1338V78.0065H55.8676V62.4644Z" fill="black"></path>
<path d="M139.926 59.1738V59.1271L139.879 59.1038C138.922 58.3803 135.025 56 125.27 56C115.772 56 112.178 58.3337 111.292 59.0338L111.245 59.0571V59.1038C111.105 60.2939 110.988 64.8212 115.959 73.6658C120.79 82.277 124.477 84.2372 125.48 84.6106L125.527 84.634L125.574 84.6106C126.67 84.1206 130.591 81.8569 135.468 73.129C140.322 64.5412 140.112 60.2706 139.926 59.1738ZM134.838 72.8257C133.321 75.5094 131.921 77.563 130.684 79.1499C130.521 79.3366 130.381 79.5466 130.217 79.7099C130.054 79.8966 129.914 80.0833 129.751 80.2467C127.907 82.3703 126.484 83.3504 125.76 83.7472L125.62 83.8172L125.504 83.8872L125.27 83.7472C124.827 83.5138 124.103 83.0471 123.17 82.1836C121.373 80.5734 119.553 78.2397 117.732 75.276C117.359 74.6459 116.962 74.0158 116.589 73.3391C114.325 69.2785 113.135 66.1514 112.528 63.8878C111.968 61.7875 111.898 60.4106 111.922 59.6638V59.4071L112.085 59.3138L112.155 59.2671C112.342 59.1271 112.622 58.9871 112.948 58.8004C113.532 58.497 114.372 58.147 115.492 57.8202C117.592 57.2135 120.72 56.6768 125.27 56.6768C133.881 56.6768 137.755 58.5437 139.015 59.3371L139.225 59.4771L139.249 59.7338C139.342 61.1807 139.062 65.288 134.838 72.8257Z" fill="black"></path>
<path d="M138.456 59.9674C137.126 59.174 133.369 57.5171 125.271 57.5171C117.476 57.5171 113.976 59.104 112.739 59.8741C112.716 61.461 113.182 65.6382 117.29 72.9659C119.437 76.8164 121.607 79.7102 123.707 81.6238C124.477 82.3238 125.084 82.7439 125.504 82.9773C126.858 82.1605 130.101 79.6401 134.115 72.4525C138.106 65.3582 138.503 61.461 138.456 59.9674ZM133.742 72.2191C129.915 79.0801 126.764 81.6238 125.504 82.4405C125.154 82.2305 124.641 81.8571 124.011 81.2737C121.957 79.4068 119.833 76.5364 117.686 72.7325C113.766 65.7316 113.229 61.6477 113.182 60.1074C113.299 60.0374 113.439 59.9674 113.579 59.8974C113.743 59.8041 113.929 59.7341 114.163 59.6407C114.419 59.524 114.699 59.4307 115.026 59.314C116.94 58.6606 120.16 57.9605 125.247 57.9605C130.988 57.9605 134.512 58.8239 136.472 59.5474C137.149 59.8041 137.639 60.0374 137.966 60.2241C137.989 61.6477 137.523 65.4749 133.742 72.2191Z" fill="black"></path>
<path d="M124.408 63.3745V68.8352C122.471 68.6019 120.884 67.3184 120.884 65.8015C120.884 64.5413 121.887 63.4678 123.334 63.0011C123.311 62.9778 122.611 62.581 121.49 63.1878C121.49 63.1878 122.237 62.511 121.887 61.4842C121.607 62.231 120.884 62.6511 120.884 62.6511C121.094 61.6943 120.58 61.1108 120.58 61.1108C120.51 62.0443 118.947 62.9544 118.27 63.6312C117.897 64.0046 117.687 64.588 117.687 65.2647V65.4514V66.0349C116.286 66.4549 116.613 67.8784 116.613 67.8784C116.613 67.8784 117.057 67.435 117.99 67.435C121.07 67.435 119.6 73.3625 124.408 74.7861V77.2131C124.408 77.5865 124.711 77.9365 125.108 77.9132H125.178V62.6044C124.758 62.6044 124.408 62.9544 124.408 63.3745Z" fill="black"></path>
<path d="M126.6 63.3746C126.6 62.9545 126.25 62.6045 125.83 62.6045V77.8899H125.9C126.273 77.8899 126.577 77.5632 126.577 77.1898V74.7628C128.164 74.2494 128.981 73.0593 129.517 71.1223C129.587 70.9123 129.657 70.6789 129.797 70.5156C129.937 70.3289 130.147 70.2122 130.404 70.2122C130.824 70.2122 131.151 70.5389 131.151 70.959C131.314 70.6556 131.408 70.3522 131.454 70.0022C131.501 69.6755 131.478 69.3488 131.408 69.0454C132.084 69.0454 132.388 70.1655 132.388 70.1655C132.551 69.8622 132.644 69.5588 132.691 69.1854C132.738 68.742 132.691 68.322 132.528 67.9019C133.181 67.9019 133.414 68.9987 133.414 68.9987C133.578 68.6953 133.648 68.392 133.694 68.0419C133.741 67.6685 133.718 67.2718 133.624 66.9218C134.161 66.9218 134.465 67.8319 134.465 67.8319C134.581 67.5285 134.651 67.1785 134.628 66.8284C134.628 65.1949 133.274 63.888 131.594 63.888C130.661 63.888 129.821 64.2847 129.284 64.9381C128.934 65.3349 128.607 65.8716 128.304 66.5717C127.837 67.6219 127.37 68.3686 126.577 68.7653V63.3746H126.6Z" fill="black"></path>
</svg>